# xmcd
#
# Track frame offsets:
#	187
#	19130
#	35060
#	52880
#	73910
#	88605
#	106120
#	124087
#	140012
#
# Disc length: 2116 seconds
#
# Revision: 0
# Processed by: cddbd v1.4PL0 Copyright (c) Steve Scherf et al.
# Submitted via: audiograbber 1.80
#
DISCID=7b084209
DTITLE=gg - gg
DYEAR=1900
DGENRE=
TTITLE0=gg
TTITLE1=gg
TTITLE2=gg
TTITLE3=ggg
TTITLE4=gg
TTITLE5=gg
TTITLE6=gg
TTITLE7=gg
TTITLE8=gg
EXTD=
EXTT0=
EXTT1=
EXTT2=
EXTT3=
EXTT4=
EXTT5=
EXTT6=
EXTT7=
EXTT8=
PLAYORDER=
